<svg xmlns="http://www.w3.org/2000/svg" width="179" height="203" fill="none" viewBox="0 0 179 203"><rect width="100" height="100" fill="#4B5563" rx="13" transform="matrix(0.866025 -0.5 2.20305e-08 1 92 103)"/><rect width="100" height="100" fill="#1F2937" rx="13" transform="matrix(0.866025 0.5 -0.866025 0.5 88.6025 -3)"/><rect width="100" height="100" fill="#111827" rx="13" transform="matrix(0.866025 0.5 -2.20305e-08 1 0.000152588 53)"/><rect width="72.782" height="72.782" fill="#374151" rx="13" transform="matrix(0.866025 0.5 -2.20305e-08 1 11 73)"/><rect width="28.144" height="28.144" fill="#E5E7EB" fillOpacity=".9" rx="3" transform="matrix(0.866025 0.5 -2.20305e-08 1 11.0002 86)"/><rect width="28.144" height="28.144" fill="#E5E7EB" fillOpacity=".9" rx="3" transform="matrix(0.866025 0.5 -2.20305e-08 1 50.0001 107)"/><rect width="13.856" height="13.856" fill="#E5E7EB" fillOpacity=".9" rx="3" transform="matrix(0.866025 0.5 -2.20305e-08 1 43.0001 148)"/></svg>