<svg xmlns="http://www.w3.org/2000/svg" width="512" height="512" viewBox="0 0 512 512"><defs><linearGradient id="gradLeft" x1="0%" x2="100%" y1="0%" y2="100%"><stop offset="0%" stop-color="#0ff5ce"/><stop offset="100%" stop-color="#147a8a"/></linearGradient><linearGradient id="gradRight" x1="100%" x2="0%" y1="0%" y2="100%"><stop offset="0%" stop-color="#d0e4f5"/><stop offset="100%" stop-color="#6a9ec4"/></linearGradient><linearGradient id="gradTop" x1="50%" x2="50%" y1="0%" y2="100%"><stop offset="0%" stop-color="#a0d8e8"/><stop offset="100%" stop-color="#4aafbf"/></linearGradient><linearGradient id="gradText" x1="0%" x2="100%" y1="0%" y2="0%"><stop offset="0%" stop-color="#0ff5ce"/><stop offset="35%" stop-color="#4abfcf"/><stop offset="65%" stop-color="#7badd4"/><stop offset="100%" stop-color="#c0daf0"/></linearGradient><linearGradient id="gradS" x1="0%" x2="0%" y1="0%" y2="100%"><stop offset="0%" stop-color="#f0f8ff"/><stop offset="100%" stop-color="#6cbfcf"/></linearGradient><filter id="glow" width="160%" height="160%" x="-30%" y="-30%"><feGaussianBlur result="blur" stdDeviation="4"/><feMerge><feMergeNode in="blur"/><feMergeNode in="SourceGraphic"/></feMerge></filter><pattern id="binL" width="55" height="16" x="0" y="0" patternTransform="rotate(-3)" patternUnits="userSpaceOnUse"><text x="0" y="11" fill="rgba(0,255,210,0.25)" font-family="monospace" font-size="8">1001 1101</text></pattern><pattern id="binR" width="55" height="16" x="0" y="0" patternTransform="rotate(3)" patternUnits="userSpaceOnUse"><text x="0" y="11" fill="rgba(180,210,240,0.25)" font-family="monospace" font-size="8">0110 1011</text></pattern><pattern id="binT" width="50" height="16" x="0" y="0" patternUnits="userSpaceOnUse"><text x="2" y="11" fill="rgba(120,200,220,0.2)" font-family="monospace" font-size="8">10 110</text></pattern></defs><rect width="512" height="512" fill="#08080e" rx="72"/><polygon fill="url(#gradLeft)" points="90 350 250 350 170 228" opacity=".8"/><polygon fill="url(#binL)" points="90 350 250 350 170 228"/><polygon fill="url(#gradRight)" points="262 350 422 350 342 228" opacity=".8"/><polygon fill="url(#binR)" points="262 350 422 350 342 228"/><polygon fill="none" stroke="url(#gradTop)" stroke-width="2.5" points="176 290 336 290 256 168" opacity=".85"/><polygon fill="none" stroke="url(#gradTop)" stroke-width=".8" points="192 280 320 280 256 184" opacity=".35"/><text x="256" y="316" fill="url(#gradS)" filter="url(#glow)" font-family="Georgia, 'Times New Roman', serif" font-size="120" font-weight="bold" text-anchor="middle">S</text><text x="256" y="425" fill="url(#gradText)" font-family="'Helvetica Neue', 'Segoe UI', Arial, sans-serif" font-size="40" font-weight="300" letter-spacing="5" text-anchor="middle">SSSAiCode</text></svg>