<svg xmlns="http://www.w3.org/2000/svg" fill="none" viewBox="0 0 200 200"><defs><linearGradient id="grad1" x1="0%" x2="100%" y1="0%" y2="100%"><stop offset="0%" style="stop-color:#0d9488;stop-opacity:1"/><stop offset="50%" style="stop-color:#14b8a6;stop-opacity:1"/><stop offset="100%" style="stop-color:#f59e0b;stop-opacity:1"/></linearGradient></defs><rect width="200" height="200" fill="url(#grad1)" rx="40"/><g transform="translate(100,100)"><path fill="none" stroke="#fff" stroke-linecap="round" stroke-width="6" d="M-50,-50 C-50,-10 -10,-10 0,0 C10,10 50,10 50,50" opacity=".95"/><path fill="none" stroke="#fff" stroke-linecap="round" stroke-width="6" d="M50,-50 C50,-10 10,-10 0,0 C-10,10 -50,10 -50,50" opacity=".95"/><circle cx="0" cy="0" r="10" fill="#fff" opacity=".95"/><circle cx="-50" cy="-50" r="6" fill="#fff" opacity=".7"/><circle cx="50" cy="-50" r="6" fill="#fff" opacity=".7"/><circle cx="-50" cy="50" r="6" fill="#fff" opacity=".7"/><circle cx="50" cy="50" r="6" fill="#fff" opacity=".7"/><circle cx="-28" cy="-28" r="3.5" fill="#fff" opacity=".5"/><circle cx="28" cy="-28" r="3.5" fill="#fff" opacity=".5"/><circle cx="-28" cy="28" r="3.5" fill="#fff" opacity=".5"/><circle cx="28" cy="28" r="3.5" fill="#fff" opacity=".5"/></g></svg>