<svg xmlns="http://www.w3.org/2000/svg" xmlns:xlink="http://www.w3.org/1999/xlink" viewBox="0 0 172.11 172.11"><defs><style>.cls-1{fill:url(#未命名的渐变_56)}.cls-2{fill:url(#未命名的渐变_37)}.cls-3{fill:url(#未命名的渐变_37-2)}.cls-4{fill:url(#未命名的渐变_37-3)}.cls-5{fill:url(#未命名的渐变_37-4)}.cls-6{fill:url(#未命名的渐变_37-5)}.cls-7{fill:url(#未命名的渐变_37-6)}.cls-8{fill:url(#未命名的渐变_37-7)}.cls-9{fill:#fff}.cls-10{fill:url(#未命名的渐变_38)}</style><linearGradient id="未命名的渐变_56" x1="86.06" x2="86.06" y1="-6.73" y2="185.53" gradientUnits="userSpaceOnUse"><stop offset="0" stop-color="#32303a"/><stop offset=".36" stop-color="#34323d"/><stop offset=".62" stop-color="#3a3946"/><stop offset=".85" stop-color="#444556"/><stop offset="1" stop-color="#4e5065"/></linearGradient><linearGradient id="未命名的渐变_37" x1="143.96" x2="71.52" y1="73.06" y2="34.1" gradientUnits="userSpaceOnUse"><stop offset="0" stop-color="#4043ff"/><stop offset="1" stop-color="#f0f5fa"/></linearGradient><linearGradient id="未命名的渐变_37-2" x1="104.88" x2="71.68" y1="118.84" y2="66.44" xlink:href="#未命名的渐变_37"/><linearGradient id="未命名的渐变_37-3" x1="95.68" x2="33.68" y1="72.87" y2="76.43" xlink:href="#未命名的渐变_37"/><linearGradient id="未命名的渐变_37-4" x1="70" x2="46.68" y1="130.18" y2="73.38" xlink:href="#未命名的渐变_37"/><linearGradient id="未命名的渐变_37-5" x1="107.49" x2="147.27" y1="106.07" y2="159.57" xlink:href="#未命名的渐变_37"/><linearGradient id="未命名的渐变_37-6" x1="106.69" x2="142.65" y1="50.6" y2="131.51" xlink:href="#未命名的渐变_37"/><linearGradient id="未命名的渐变_37-7" x1="111.35" x2="82.55" y1="152.42" y2="89.87" xlink:href="#未命名的渐变_37"/><linearGradient id="未命名的渐变_38" x1="64.73" x2="83.39" y1="89.4" y2="89.4" gradientUnits="userSpaceOnUse"><stop offset="0" stop-color="#5b5dfe"/><stop offset=".18" stop-color="#5b5dfe" stop-opacity=".99"/><stop offset=".31" stop-color="#5b5dfe" stop-opacity=".95"/><stop offset=".43" stop-color="#5b5cfe" stop-opacity=".89"/><stop offset=".54" stop-color="#5b5cfe" stop-opacity=".8"/><stop offset=".64" stop-color="#5b5bfe" stop-opacity=".68"/><stop offset=".74" stop-color="#5b5afe" stop-opacity=".54"/><stop offset=".83" stop-color="#5a59ff" stop-opacity=".38"/><stop offset=".92" stop-color="#5a58ff" stop-opacity=".19"/><stop offset="1" stop-color="#5a57ff" stop-opacity="0"/></linearGradient></defs><title>资源 13</title><g id="图层_2" data-name="图层 2"><g id="图层_1-2" data-name="图层 1"><rect width="172.11" height="172.11" class="cls-1" rx="46.24"/><polygon points="124.1 51.65 104.14 63.16 104.08 63.12 84.2 51.65 104.08 40.17 104.14 40.14 124.1 51.65" class="cls-2"/><path d="M111.61,90.51l-.1-.06-2.92-1.69a8.9,8.9,0,0,1-4.46-7.69l0-17.95L84.2,51.65l-.12.07V69.59a8.91,8.91,0,0,1-4.45,7.71L64.26,86.17v23l12.4-7.15,3.09-1.78a8.92,8.92,0,0,1,8.91,0l15.42,8.91.06,0,19.93-11.49h0Z" class="cls-3"/><path d="M84.08,66v3.55a8.91,8.91,0,0,1-4.45,7.71L64.26,86.17,44.32,74.68v0L64.26,63.17l12.41,7.15A4.94,4.94,0,0,0,84.08,66Z" class="cls-4"/><polygon points="64.26 86.17 64.26 109.2 44.32 97.7 44.32 74.68 64.26 86.17" class="cls-5"/><polygon points="124.1 97.7 124.1 120.72 124.08 120.72 104.14 132.23 104.08 132.21 104.08 109.25 104.14 109.2 124.08 97.7 124.1 97.7" class="cls-6"/><path d="M124.1,51.65v23h0l-12.48,7.21c-3.28,1.89-3,6.87-3,6.87a8.9,8.9,0,0,1-4.46-7.69l0-17.89.06,0Z" class="cls-7"/><path d="M104.08,109.18v23L84.2,120.72l-.12-.07V106.33a4.94,4.94,0,0,0-7.41-4.28l3-1.72a8.89,8.89,0,0,1,8.87,0Z" class="cls-8"/><path d="M85.28,81.09V91.24a2.56,2.56,0,0,0,3.85,2.22l8.81-5.09a2.56,2.56,0,0,0,0-4.44l-8.82-5.06A2.56,2.56,0,0,0,85.28,81.09Z" class="cls-9"/><path d="M84.08,69.59a8.91,8.91,0,0,1-4.45,7.71L64.26,86.17v23l12.4-7.15,3.09-1.78a8.82,8.82,0,0,1,4.33-1.19Z" class="cls-10"/></g></g></svg>